<svg xmlns="http://www.w3.org/2000/svg" viewBox="0 0 64 64">
  <defs>
    <linearGradient id="bg" x1="0" y1="0" x2="1" y2="1">
      <stop offset="0%" stop-color="#2563EB" />
      <stop offset="100%" stop-color="#1D4ED8" />
    </linearGradient>
  </defs>
  <rect width="64" height="64" rx="14" fill="url(#bg)" />
  <path
    d="M33.4 16.5c8.8 0 15.3 6.1 15.3 14.8 0 8.5-6.2 14.4-14.8 14.8l3.8 4.8c.6.8.3 1.9-.6 2.4a1.8 1.8 0 0 1-2.4-.4l-5.7-7.1h-.5c-8.8 0-15.2-6-15.2-14.6 0-8.8 6.5-14.7 15.1-14.7Zm0 4.8c-5.7 0-9.7 3.9-9.7 9.9 0 5.8 4.1 9.8 9.8 9.8 5.7 0 9.8-4 9.8-9.8 0-6-4-9.9-9.9-9.9Z"
    fill="#fff"
  />
</svg>
