<svg xmlns="http://www.w3.org/2000/svg" width="1200" height="630" viewBox="0 0 1200 630" role="img" aria-label="Quero Entrevista">
  <defs>
    <linearGradient id="bg" x1="0" y1="0" x2="1" y2="1">
      <stop offset="0%" stop-color="#F8FAFC" />
      <stop offset="100%" stop-color="#E2E8F0" />
    </linearGradient>
  </defs>
  <rect width="1200" height="630" fill="url(#bg)" />
  <rect x="90" y="90" width="86" height="86" rx="18" fill="#2563EB" />
  <path d="M128 109a23 23 0 1 0 0 46a23 23 0 1 0 0-46Zm0 9a14 14 0 1 1 0 28a14 14 0 0 1 0-28Z" fill="#fff" />
  <rect x="140" y="143" width="16" height="8" rx="4" transform="rotate(45 140 143)" fill="#fff" />
  <text x="196" y="145" font-family="Segoe UI, Arial, sans-serif" font-size="56" font-weight="700" fill="#0F172A">
    Quero Entrevista
  </text>
  <text x="90" y="268" font-family="Segoe UI, Arial, sans-serif" font-size="64" font-weight="700" fill="#0F172A">
    Conquiste mais entrevistas
  </text>
  <text x="90" y="330" font-family="Segoe UI, Arial, sans-serif" font-size="64" font-weight="700" fill="#0F172A">
    com uma candidatura mais forte.
  </text>
  <text x="90" y="420" font-family="Segoe UI, Arial, sans-serif" font-size="32" fill="#475569">
    Lista de espera aberta para os testes iniciais da plataforma.
  </text>
  <rect x="90" y="470" width="430" height="68" rx="14" fill="#2563EB" />
  <text x="130" y="515" font-family="Segoe UI, Arial, sans-serif" font-size="30" font-weight="700" fill="#fff">
    queroentrevista.com.br
  </text>
</svg>
